<?xml version="1.0" encoding="UTF-8" standalone="no"?>
<!DOCTYPE svg PUBLIC "-//W3C//DTD SVG 1.1//EN"
 "http://www.w3.org/Graphics/SVG/1.1/DTD/svg11.dtd">
<!-- Generated by graphviz version 2.40.1 (20161225.0304)
 -->
<!-- Title: dependencies Pages: 1 -->
<svg width="736pt" height="284pt"
 viewBox="0.00 0.00 736.00 284.00" xmlns="http://www.w3.org/2000/svg" xmlns:xlink="http://www.w3.org/1999/xlink">
<g id="graph0" class="graph" transform="scale(1 1) rotate(0) translate(4 280)">
<title>dependencies</title>
<polygon fill="#ffffff" stroke="transparent" points="-4,4 -4,-280 732,-280 732,4 -4,4"/>
<text text-anchor="start" x="343.0091" y="-42.4" font-family="sans-serif" font-weight="bold" font-size="14.00" fill="#000000">Legend</text>
<polygon fill="#ffffb3" stroke="transparent" points="130,-10 130,-30 150,-30 150,-10 130,-10"/>
<text text-anchor="start" x="153.629" y="-15.4" font-family="sans-serif" font-size="14.00" fill="#000000"> &#160;Declarations</text>
<polygon fill="#8dd3c7" stroke="transparent" points="243,-10 243,-30 263,-30 263,-10 243,-10"/>
<text text-anchor="start" x="266.7251" y="-15.4" font-family="sans-serif" font-size="14.00" fill="#000000"> &#160;Module</text>
<polygon fill="#80b1d3" stroke="transparent" points="329,-10 329,-30 349,-30 349,-10 329,-10"/>
<text text-anchor="start" x="352.7812" y="-15.4" font-family="sans-serif" font-size="14.00" fill="#000000"> &#160;Bootstrap</text>
<polygon fill="#fdb462" stroke="transparent" points="426,-10 426,-30 446,-30 446,-10 426,-10"/>
<text text-anchor="start" x="449.6732" y="-15.4" font-family="sans-serif" font-size="14.00" fill="#000000"> &#160;Providers</text>
<polygon fill="#fb8072" stroke="transparent" points="522,-10 522,-30 542,-30 542,-10 522,-10"/>
<text text-anchor="start" x="545.7258" y="-15.4" font-family="sans-serif" font-size="14.00" fill="#000000"> &#160;Exports</text>
<g id="clust1" class="cluster">
<title>cluster_NgbAuthFirebaseUIModule</title>
<polygon fill="none" stroke="#000000" stroke-dasharray="1,5" points="8,-70 8,-268 720,-268 720,-70 8,-70"/>
</g>
<g id="clust2" class="cluster">
<title>cluster_NgbAuthFirebaseUIModule_declarations</title>
<polygon fill="none" stroke="#000000" points="24,-78 24,-130 707,-130 707,-78 24,-78"/>
</g>
<g id="clust8" class="cluster">
<title>cluster_NgbAuthFirebaseUIModule_exports</title>
<polygon fill="none" stroke="#000000" points="16,-208 16,-260 712,-260 712,-208 16,-208"/>
</g>
<!-- AuthComponent -->
<g id="node1" class="node">
<title>AuthComponent</title>
<polygon fill="#ffffb3" stroke="#000000" points="698.8301,-122 589.1699,-122 589.1699,-86 698.8301,-86 698.8301,-122"/>
<text text-anchor="middle" x="644" y="-99.8" font-family="Times,serif" font-size="14.00" fill="#000000">AuthComponent</text>
</g>
<!-- NgbAuthFirebaseUIModule -->
<g id="node5" class="node">
<title>NgbAuthFirebaseUIModule</title>
<polygon fill="#8dd3c7" stroke="#000000" points="383.8431,-187 380.8431,-191 359.8431,-191 356.8431,-187 210.1569,-187 210.1569,-151 383.8431,-151 383.8431,-187"/>
<text text-anchor="middle" x="297" y="-164.8" font-family="Times,serif" font-size="14.00" fill="#000000">NgbAuthFirebaseUIModule</text>
</g>
<!-- AuthComponent&#45;&gt;NgbAuthFirebaseUIModule -->
<g id="edge1" class="edge">
<title>AuthComponent&#45;&gt;NgbAuthFirebaseUIModule</title>
<path fill="none" stroke="#000000" d="M662.9716,-122.2667C662.9716,-140.5552 662.9716,-166 662.9716,-166 662.9716,-166 394.1944,-166 394.1944,-166"/>
<polygon fill="#000000" stroke="#000000" points="394.1944,-162.5001 384.1944,-166 394.1943,-169.5001 394.1944,-162.5001"/>
</g>
<!-- AuthProvidersComponent -->
<g id="node2" class="node">
<title>AuthProvidersComponent</title>
<polygon fill="#ffffb3" stroke="#000000" points="571.4832,-122 408.5168,-122 408.5168,-86 571.4832,-86 571.4832,-122"/>
<text text-anchor="middle" x="490" y="-99.8" font-family="Times,serif" font-size="14.00" fill="#000000">AuthProvidersComponent</text>
</g>
<!-- AuthProvidersComponent&#45;&gt;NgbAuthFirebaseUIModule -->
<g id="edge2" class="edge">
<title>AuthProvidersComponent&#45;&gt;NgbAuthFirebaseUIModule</title>
<path fill="none" stroke="#000000" d="M517.1639,-122.0091C517.1639,-138.0494 517.1639,-159 517.1639,-159 517.1639,-159 394.0146,-159 394.0146,-159"/>
<polygon fill="#000000" stroke="#000000" points="394.0146,-155.5001 384.0146,-159 394.0146,-162.5001 394.0146,-155.5001"/>
</g>
<!-- EmailConfirmationComponent -->
<g id="node3" class="node">
<title>EmailConfirmationComponent</title>
<polygon fill="#ffffb3" stroke="#000000" points="390.2063,-122 199.7937,-122 199.7937,-86 390.2063,-86 390.2063,-122"/>
<text text-anchor="middle" x="295" y="-99.8" font-family="Times,serif" font-size="14.00" fill="#000000">EmailConfirmationComponent</text>
</g>
<!-- EmailConfirmationComponent&#45;&gt;NgbAuthFirebaseUIModule -->
<g id="edge3" class="edge">
<title>EmailConfirmationComponent&#45;&gt;NgbAuthFirebaseUIModule</title>
<path fill="none" stroke="#000000" d="M297,-122.1061C297,-122.1061 297,-140.991 297,-140.991"/>
<polygon fill="#000000" stroke="#000000" points="293.5001,-140.9909 297,-150.991 300.5001,-140.991 293.5001,-140.9909"/>
</g>
<!-- ProgressBarComponent -->
<g id="node4" class="node">
<title>ProgressBarComponent</title>
<polygon fill="#ffffb3" stroke="#000000" points="181.752,-122 32.248,-122 32.248,-86 181.752,-86 181.752,-122"/>
<text text-anchor="middle" x="107" y="-99.8" font-family="Times,serif" font-size="14.00" fill="#000000">ProgressBarComponent</text>
</g>
<!-- ProgressBarComponent&#45;&gt;NgbAuthFirebaseUIModule -->
<g id="edge4" class="edge">
<title>ProgressBarComponent&#45;&gt;NgbAuthFirebaseUIModule</title>
<path fill="none" stroke="#000000" d="M129.1253,-122.0225C129.1253,-139.3734 129.1253,-163 129.1253,-163 129.1253,-163 200.1123,-163 200.1123,-163"/>
<polygon fill="#000000" stroke="#000000" points="200.1123,-166.5001 210.1123,-163 200.1122,-159.5001 200.1123,-166.5001"/>
</g>
<!-- AuthComponent  -->
<g id="node6" class="node">
<title>AuthComponent </title>
<polygon fill="#fb8072" stroke="#000000" points="704.3297,-252 591.6703,-252 591.6703,-216 704.3297,-216 704.3297,-252"/>
<text text-anchor="middle" x="648" y="-229.8" font-family="Times,serif" font-size="14.00" fill="#000000">AuthComponent </text>
</g>
<!-- NgbAuthFirebaseUIModule&#45;&gt;AuthComponent  -->
<g id="edge5" class="edge">
<title>NgbAuthFirebaseUIModule&#45;&gt;AuthComponent </title>
<path fill="none" stroke="#000000" stroke-dasharray="5,2" d="M384.2088,-173C482.0606,-173 627.2784,-173 627.2784,-173 627.2784,-173 627.2784,-205.698 627.2784,-205.698"/>
<polygon fill="#000000" stroke="#000000" points="623.7785,-205.698 627.2784,-215.698 630.7785,-205.698 623.7785,-205.698"/>
</g>
<!-- AuthProvidersComponent  -->
<g id="node7" class="node">
<title>AuthProvidersComponent </title>
<polygon fill="#fb8072" stroke="#000000" points="573.4839,-252 406.5161,-252 406.5161,-216 573.4839,-216 573.4839,-252"/>
<text text-anchor="middle" x="490" y="-229.8" font-family="Times,serif" font-size="14.00" fill="#000000">AuthProvidersComponent </text>
</g>
<!-- NgbAuthFirebaseUIModule&#45;&gt;AuthProvidersComponent  -->
<g id="edge6" class="edge">
<title>NgbAuthFirebaseUIModule&#45;&gt;AuthProvidersComponent </title>
<path fill="none" stroke="#000000" stroke-dasharray="5,2" d="M384.2889,-180C424.2409,-180 462.8361,-180 462.8361,-180 462.8361,-180 462.8361,-205.7181 462.8361,-205.7181"/>
<polygon fill="#000000" stroke="#000000" points="459.3362,-205.718 462.8361,-215.7181 466.3362,-205.7181 459.3362,-205.718"/>
</g>
<!-- EmailConfirmationComponent  -->
<g id="node8" class="node">
<title>EmailConfirmationComponent </title>
<polygon fill="#fb8072" stroke="#000000" points="388.7064,-252 195.2936,-252 195.2936,-216 388.7064,-216 388.7064,-252"/>
<text text-anchor="middle" x="292" y="-229.8" font-family="Times,serif" font-size="14.00" fill="#000000">EmailConfirmationComponent </text>
</g>
<!-- NgbAuthFirebaseUIModule&#45;&gt;EmailConfirmationComponent  -->
<g id="edge7" class="edge">
<title>NgbAuthFirebaseUIModule&#45;&gt;EmailConfirmationComponent </title>
<path fill="none" stroke="#000000" stroke-dasharray="5,2" d="M297,-187.1061C297,-187.1061 297,-205.991 297,-205.991"/>
<polygon fill="#000000" stroke="#000000" points="293.5001,-205.9909 297,-215.991 300.5001,-205.991 293.5001,-205.9909"/>
</g>
<!-- ProgressBarComponent  -->
<g id="node9" class="node">
<title>ProgressBarComponent </title>
<polygon fill="#fb8072" stroke="#000000" points="177.752,-252 24.248,-252 24.248,-216 177.752,-216 177.752,-252"/>
<text text-anchor="middle" x="101" y="-229.8" font-family="Times,serif" font-size="14.00" fill="#000000">ProgressBarComponent </text>
</g>
<!-- NgbAuthFirebaseUIModule&#45;&gt;ProgressBarComponent  -->
<g id="edge8" class="edge">
<title>NgbAuthFirebaseUIModule&#45;&gt;ProgressBarComponent </title>
<path fill="none" stroke="#000000" stroke-dasharray="5,2" d="M209.9272,-175C149.8022,-175 80.6247,-175 80.6247,-175 80.6247,-175 80.6247,-205.9775 80.6247,-205.9775"/>
<polygon fill="#000000" stroke="#000000" points="77.1248,-205.9774 80.6247,-215.9775 84.1248,-205.9775 77.1248,-205.9774"/>
</g>
</g>
</svg>
