<?xml version="1.0" encoding="UTF-8" standalone="no"?>
<!DOCTYPE svg PUBLIC "-//W3C//DTD SVG 1.1//EN"
 "http://www.w3.org/Graphics/SVG/1.1/DTD/svg11.dtd">
<!-- Generated by graphviz version 2.40.1 (20161225.0304)
 -->
<!-- Title: dependencies Pages: 1 -->
<svg width="953pt" height="284pt"
 viewBox="0.00 0.00 953.00 284.00" xmlns="http://www.w3.org/2000/svg" xmlns:xlink="http://www.w3.org/1999/xlink">
<g id="graph0" class="graph" transform="scale(1 1) rotate(0) translate(4 280)">
<title>dependencies</title>
<polygon fill="#ffffff" stroke="transparent" points="-4,4 -4,-280 949,-280 949,4 -4,4"/>
<text text-anchor="start" x="451.5091" y="-42.4" font-family="sans-serif" font-weight="bold" font-size="14.00" fill="#000000">Legend</text>
<polygon fill="#ffffb3" stroke="transparent" points="238.5,-10 238.5,-30 258.5,-30 258.5,-10 238.5,-10"/>
<text text-anchor="start" x="262.129" y="-15.4" font-family="sans-serif" font-size="14.00" fill="#000000"> &#160;Declarations</text>
<polygon fill="#8dd3c7" stroke="transparent" points="351.5,-10 351.5,-30 371.5,-30 371.5,-10 351.5,-10"/>
<text text-anchor="start" x="375.2251" y="-15.4" font-family="sans-serif" font-size="14.00" fill="#000000"> &#160;Module</text>
<polygon fill="#80b1d3" stroke="transparent" points="437.5,-10 437.5,-30 457.5,-30 457.5,-10 437.5,-10"/>
<text text-anchor="start" x="461.2812" y="-15.4" font-family="sans-serif" font-size="14.00" fill="#000000"> &#160;Bootstrap</text>
<polygon fill="#fdb462" stroke="transparent" points="534.5,-10 534.5,-30 554.5,-30 554.5,-10 534.5,-10"/>
<text text-anchor="start" x="558.1732" y="-15.4" font-family="sans-serif" font-size="14.00" fill="#000000"> &#160;Providers</text>
<polygon fill="#fb8072" stroke="transparent" points="630.5,-10 630.5,-30 650.5,-30 650.5,-10 630.5,-10"/>
<text text-anchor="start" x="654.2258" y="-15.4" font-family="sans-serif" font-size="14.00" fill="#000000"> &#160;Exports</text>
<g id="clust1" class="cluster">
<title>cluster_NgbAuthFirebaseUIModule</title>
<polygon fill="none" stroke="#000000" stroke-dasharray="1,5" points="8,-70 8,-268 937,-268 937,-70 8,-70"/>
</g>
<g id="clust2" class="cluster">
<title>cluster_NgbAuthFirebaseUIModule_declarations</title>
<polygon fill="none" stroke="#000000" points="25,-78 25,-130 921,-130 921,-78 25,-78"/>
</g>
<g id="clust9" class="cluster">
<title>cluster_NgbAuthFirebaseUIModule_exports</title>
<polygon fill="none" stroke="#000000" points="16,-208 16,-260 929,-260 929,-208 16,-208"/>
</g>
<!-- AuthComponent -->
<g id="node1" class="node">
<title>AuthComponent</title>
<polygon fill="#ffffb3" stroke="#000000" points="912.8301,-122 803.1699,-122 803.1699,-86 912.8301,-86 912.8301,-122"/>
<text text-anchor="middle" x="858" y="-99.8" font-family="Times,serif" font-size="14.00" fill="#000000">AuthComponent</text>
</g>
<!-- NgbAuthFirebaseUIModule -->
<g id="node6" class="node">
<title>NgbAuthFirebaseUIModule</title>
<polygon fill="#8dd3c7" stroke="#000000" points="595.8431,-187 592.8431,-191 571.8431,-191 568.8431,-187 422.1569,-187 422.1569,-151 595.8431,-151 595.8431,-187"/>
<text text-anchor="middle" x="509" y="-164.8" font-family="Times,serif" font-size="14.00" fill="#000000">NgbAuthFirebaseUIModule</text>
</g>
<!-- AuthComponent&#45;&gt;NgbAuthFirebaseUIModule -->
<g id="edge1" class="edge">
<title>AuthComponent&#45;&gt;NgbAuthFirebaseUIModule</title>
<path fill="none" stroke="#000000" d="M877.9716,-122.2667C877.9716,-140.5552 877.9716,-166 877.9716,-166 877.9716,-166 605.9739,-166 605.9739,-166"/>
<polygon fill="#000000" stroke="#000000" points="605.9739,-162.5001 595.9739,-166 605.9739,-169.5001 605.9739,-162.5001"/>
</g>
<!-- AuthProvidersComponent -->
<g id="node2" class="node">
<title>AuthProvidersComponent</title>
<polygon fill="#ffffb3" stroke="#000000" points="785.4832,-122 622.5168,-122 622.5168,-86 785.4832,-86 785.4832,-122"/>
<text text-anchor="middle" x="704" y="-99.8" font-family="Times,serif" font-size="14.00" fill="#000000">AuthProvidersComponent</text>
</g>
<!-- AuthProvidersComponent&#45;&gt;NgbAuthFirebaseUIModule -->
<g id="edge2" class="edge">
<title>AuthProvidersComponent&#45;&gt;NgbAuthFirebaseUIModule</title>
<path fill="none" stroke="#000000" d="M731.5805,-122.0091C731.5805,-138.0494 731.5805,-159 731.5805,-159 731.5805,-159 606.0117,-159 606.0117,-159"/>
<polygon fill="#000000" stroke="#000000" points="606.0118,-155.5001 596.0117,-159 606.0117,-162.5001 606.0118,-155.5001"/>
</g>
<!-- EmailConfirmationComponent -->
<g id="node3" class="node">
<title>EmailConfirmationComponent</title>
<polygon fill="#ffffb3" stroke="#000000" points="604.2063,-122 413.7937,-122 413.7937,-86 604.2063,-86 604.2063,-122"/>
<text text-anchor="middle" x="509" y="-99.8" font-family="Times,serif" font-size="14.00" fill="#000000">EmailConfirmationComponent</text>
</g>
<!-- EmailConfirmationComponent&#45;&gt;NgbAuthFirebaseUIModule -->
<g id="edge3" class="edge">
<title>EmailConfirmationComponent&#45;&gt;NgbAuthFirebaseUIModule</title>
<path fill="none" stroke="#000000" d="M509,-122.1061C509,-122.1061 509,-140.991 509,-140.991"/>
<polygon fill="#000000" stroke="#000000" points="505.5001,-140.9909 509,-150.991 512.5001,-140.991 505.5001,-140.9909"/>
</g>
<!-- NgbAlertsContainerComponent -->
<g id="node4" class="node">
<title>NgbAlertsContainerComponent</title>
<polygon fill="#ffffb3" stroke="#000000" points="395.3543,-122 200.6457,-122 200.6457,-86 395.3543,-86 395.3543,-122"/>
<text text-anchor="middle" x="298" y="-99.8" font-family="Times,serif" font-size="14.00" fill="#000000">NgbAlertsContainerComponent</text>
</g>
<!-- NgbAlertsContainerComponent&#45;&gt;NgbAuthFirebaseUIModule -->
<g id="edge4" class="edge">
<title>NgbAlertsContainerComponent&#45;&gt;NgbAuthFirebaseUIModule</title>
<path fill="none" stroke="#000000" d="M329.6424,-122.0091C329.6424,-138.0494 329.6424,-159 329.6424,-159 329.6424,-159 411.9482,-159 411.9482,-159"/>
<polygon fill="#000000" stroke="#000000" points="411.9482,-162.5001 421.9482,-159 411.9481,-155.5001 411.9482,-162.5001"/>
</g>
<!-- ProgressBarComponent -->
<g id="node5" class="node">
<title>ProgressBarComponent</title>
<polygon fill="#ffffb3" stroke="#000000" points="182.752,-122 33.248,-122 33.248,-86 182.752,-86 182.752,-122"/>
<text text-anchor="middle" x="108" y="-99.8" font-family="Times,serif" font-size="14.00" fill="#000000">ProgressBarComponent</text>
</g>
<!-- ProgressBarComponent&#45;&gt;NgbAuthFirebaseUIModule -->
<g id="edge5" class="edge">
<title>ProgressBarComponent&#45;&gt;NgbAuthFirebaseUIModule</title>
<path fill="none" stroke="#000000" d="M129.4586,-122.2667C129.4586,-140.5552 129.4586,-166 129.4586,-166 129.4586,-166 411.9255,-166 411.9255,-166"/>
<polygon fill="#000000" stroke="#000000" points="411.9256,-169.5001 421.9255,-166 411.9255,-162.5001 411.9256,-169.5001"/>
</g>
<!-- AuthComponent  -->
<g id="node7" class="node">
<title>AuthComponent </title>
<polygon fill="#fb8072" stroke="#000000" points="921.3297,-252 808.6703,-252 808.6703,-216 921.3297,-216 921.3297,-252"/>
<text text-anchor="middle" x="865" y="-229.8" font-family="Times,serif" font-size="14.00" fill="#000000">AuthComponent </text>
</g>
<!-- NgbAuthFirebaseUIModule&#45;&gt;AuthComponent  -->
<g id="edge6" class="edge">
<title>NgbAuthFirebaseUIModule&#45;&gt;AuthComponent </title>
<path fill="none" stroke="#000000" stroke-dasharray="5,2" d="M595.9551,-173C695.0003,-173 843.2784,-173 843.2784,-173 843.2784,-173 843.2784,-205.698 843.2784,-205.698"/>
<polygon fill="#000000" stroke="#000000" points="839.7785,-205.698 843.2784,-215.698 846.7785,-205.698 839.7785,-205.698"/>
</g>
<!-- AuthProvidersComponent  -->
<g id="node8" class="node">
<title>AuthProvidersComponent </title>
<polygon fill="#fb8072" stroke="#000000" points="790.4839,-252 623.5161,-252 623.5161,-216 790.4839,-216 790.4839,-252"/>
<text text-anchor="middle" x="707" y="-229.8" font-family="Times,serif" font-size="14.00" fill="#000000">AuthProvidersComponent </text>
</g>
<!-- NgbAuthFirebaseUIModule&#45;&gt;AuthProvidersComponent  -->
<g id="edge7" class="edge">
<title>NgbAuthFirebaseUIModule&#45;&gt;AuthProvidersComponent </title>
<path fill="none" stroke="#000000" stroke-dasharray="5,2" d="M596.2991,-180C637.4555,-180 677.6695,-180 677.6695,-180 677.6695,-180 677.6695,-205.7181 677.6695,-205.7181"/>
<polygon fill="#000000" stroke="#000000" points="674.1696,-205.718 677.6695,-215.7181 681.1696,-205.7181 674.1696,-205.718"/>
</g>
<!-- EmailConfirmationComponent  -->
<g id="node9" class="node">
<title>EmailConfirmationComponent </title>
<polygon fill="#fb8072" stroke="#000000" points="605.7064,-252 412.2936,-252 412.2936,-216 605.7064,-216 605.7064,-252"/>
<text text-anchor="middle" x="509" y="-229.8" font-family="Times,serif" font-size="14.00" fill="#000000">EmailConfirmationComponent </text>
</g>
<!-- NgbAuthFirebaseUIModule&#45;&gt;EmailConfirmationComponent  -->
<g id="edge8" class="edge">
<title>NgbAuthFirebaseUIModule&#45;&gt;EmailConfirmationComponent </title>
<path fill="none" stroke="#000000" stroke-dasharray="5,2" d="M509,-187.1061C509,-187.1061 509,-205.991 509,-205.991"/>
<polygon fill="#000000" stroke="#000000" points="505.5001,-205.9909 509,-215.991 512.5001,-205.991 505.5001,-205.9909"/>
</g>
<!-- NgbAlertsContainerComponent  -->
<g id="node10" class="node">
<title>NgbAlertsContainerComponent </title>
<polygon fill="#fb8072" stroke="#000000" points="394.3545,-252 195.6455,-252 195.6455,-216 394.3545,-216 394.3545,-252"/>
<text text-anchor="middle" x="295" y="-229.8" font-family="Times,serif" font-size="14.00" fill="#000000">NgbAlertsContainerComponent </text>
</g>
<!-- NgbAuthFirebaseUIModule&#45;&gt;NgbAlertsContainerComponent  -->
<g id="edge9" class="edge">
<title>NgbAuthFirebaseUIModule&#45;&gt;NgbAlertsContainerComponent </title>
<path fill="none" stroke="#000000" stroke-dasharray="5,2" d="M421.9822,-180C351.9398,-180 265.1076,-180 265.1076,-180 265.1076,-180 265.1076,-205.7181 265.1076,-205.7181"/>
<polygon fill="#000000" stroke="#000000" points="261.6077,-205.718 265.1076,-215.7181 268.6077,-205.7181 261.6077,-205.718"/>
</g>
<!-- ProgressBarComponent  -->
<g id="node11" class="node">
<title>ProgressBarComponent </title>
<polygon fill="#fb8072" stroke="#000000" points="177.752,-252 24.248,-252 24.248,-216 177.752,-216 177.752,-252"/>
<text text-anchor="middle" x="101" y="-229.8" font-family="Times,serif" font-size="14.00" fill="#000000">ProgressBarComponent </text>
</g>
<!-- NgbAuthFirebaseUIModule&#45;&gt;ProgressBarComponent  -->
<g id="edge10" class="edge">
<title>NgbAuthFirebaseUIModule&#45;&gt;ProgressBarComponent </title>
<path fill="none" stroke="#000000" stroke-dasharray="5,2" d="M421.9312,-173C296.8756,-173 81.2914,-173 81.2914,-173 81.2914,-173 81.2914,-205.698 81.2914,-205.698"/>
<polygon fill="#000000" stroke="#000000" points="77.7913,-205.698 81.2914,-215.698 84.7913,-205.698 77.7913,-205.698"/>
</g>
</g>
</svg>
